<svg width="130" height="130" viewBox="0 0 100 115" version="1.1" xmlns="http://www.w3.org/2000/svg" xmlns:xlink="http://www.w3.org/1999/xlink" xml:space="preserve" xmlns:serif="http://www.serif.com/" style="fill-rule:evenodd;clip-rule:evenodd;stroke-linejoin:round;stroke-miterlimit:1.41421;"><g><circle cx="71.321" cy="57.261" r="12.847" style="fill:#009693;"/><circle cx="49.482" cy="63.684" r="6.423" style="fill:#009693;"/><circle cx="36.635" cy="36.706" r="6.423" style="fill:#c466a9;"/><path d="M0.593,36l49.176,43.463l-49.176,-39.716l0,-3.747Z" style="fill:#0d0d0d;"/><path d="M98.945,39.463l-49.176,-39.463l49.176,36.06l0,3.403Z" style="fill:#0d0d0d;"/><path d="M0.593,39.463l49.176,-39.463l-49.176,36.06l0,3.403Z" style="fill:#0d0d0d;"/><path d="M0.945,114.295l98.133,0l-98.133,-3l0,3Z" style="fill:#0d0d0d;"/><path d="M96.605,37.5l-46.836,41.963l48.824,-39.716l-1.988,-2.247Z" style="fill:#0d0d0d;"/><path d="M74.86,22.269l-49.868,0l-0.244,0.009l0.061,0.601l50.051,0.25l0,-0.86Z" style="fill:#0d0d0d;"/><path d="M75.36,58.242l-0.013,-35.973l-0.796,0.045l-0.331,35.928l1.14,0Z" style="fill:#0d0d0d;"/><path d="M25.318,58.242l-0.013,-35.973l-0.796,0.045l-0.331,35.928l1.14,0Z" style="fill:#0d0d0d;"/><path d="M3.053,34.055l-2.217,80.24l-0.836,-78.368l3.053,-1.872Z" style="fill:#0d0d0d;"/><path d="M95.892,34.055l2.217,80.24l0.836,-78.368l-3.053,-1.872Z" style="fill:#0d0d0d;"/></g></svg>