<svg width="153" height="130" viewBox="0 0 118 100" version="1.1" xmlns="http://www.w3.org/2000/svg" xmlns:xlink="http://www.w3.org/1999/xlink" xml:space="preserve" xmlns:serif="http://www.serif.com/" style="fill-rule:evenodd;clip-rule:evenodd;stroke-linejoin:round;stroke-miterlimit:1.41421;"><g><circle cx="89.152" cy="47.936" r="19.286" style="fill:#009693;"/><circle cx="55.402" cy="63.365" r="9.643" style="fill:#009693;"/><circle cx="37.081" cy="21.901" r="9.643" style="fill:#c466a9;"/><path d="M17.872,3l98.132,0l-98.132,-3l0,3Z" style="fill:#0d0d0d;"/><path d="M117.004,82.266l-98.132,0l98.132,3l0,-3Z" style="fill:#0d0d0d;"/><path d="M111.773,92.507l-7.036,6.9l8.054,-5.862l-1.018,-1.038Z" style="fill:#0d0d0d;"/><path d="M22.935,93.599l7.037,-6.9l-8.054,5.862l1.017,1.038Z" style="fill:#0d0d0d;"/><path d="M23.621,93.623l88.107,-0.013l-0.111,-0.796l-87.996,-0.331l0,1.14Z" style="fill:#0d0d0d;"/><path d="M111.79,94.245l-6.933,-7.546l8.115,6.736l-1.182,0.81Z" style="fill:#0d0d0d;"/><path d="M22.918,91.861l6.933,7.546l-8.114,-6.736l1.181,-0.81Z" style="fill:#0d0d0d;"/><path d="M6.9,90.662l-6.9,-7.036l5.862,8.054l1.038,-1.018Z" style="fill:#0d0d0d;"/><path d="M5.808,1.824l6.9,7.037l-5.862,-8.054l-1.038,1.017Z" style="fill:#0d0d0d;"/><path d="M5.784,2.511l0.013,88.106l0.796,-0.111l0.331,-87.995l-1.14,0Z" style="fill:#0d0d0d;"/><path d="M5.162,90.68l7.546,-6.933l-6.736,8.114l-0.81,-1.181Z" style="fill:#0d0d0d;"/><path d="M7.546,1.807l-7.546,6.933l6.736,-8.114l0.81,1.181Z" style="fill:#0d0d0d;"/><path d="M20.979,0l-2.216,82.266l-0.836,-80.348l3.052,-1.918Z" style="fill:#0d0d0d;"/><path d="M113.897,85.266l2.216,-82.266l0.836,80.347l-3.052,1.919Z" style="fill:#0d0d0d;"/></g></svg>