<svg width="118" height="130" viewBox="0 0 119 131" version="1.1" xmlns="http://www.w3.org/2000/svg" xmlns:xlink="http://www.w3.org/1999/xlink" xml:space="preserve" xmlns:serif="http://www.serif.com/" style="fill-rule:evenodd;clip-rule:evenodd;stroke-linecap:round;stroke-linejoin:round;stroke-miterlimit:1.5;"><g><circle cx="102.591" cy="22.924" r="12.789" style="fill:#c466a9;"/><circle cx="62.508" cy="72.302" r="44.329" style="fill:#009693;"/><path d="M61.396,16.994c31.125,0 56.395,25.27 56.395,56.396c0,31.126 -25.27,56.396 -56.395,56.396" style="fill:none;stroke:#0d0d0d;stroke-width:2px;"/><path d="M61.396,129.786c-3.847,0 -7.604,-0.386 -11.234,-1.121" style="fill:none;stroke:#0d0d0d;stroke-width:2px;"/><path d="M44.759,19.492c5.26,-1.623 10.847,-2.498 16.637,-2.498" style="fill:none;stroke:#0d0d0d;stroke-width:2px;"/><path d="M56.396,41.243l-19.923,0.44l19.917,2.987l0.006,-3.427Z" style="fill:#0d0d0d;"/><path d="M57.727,17.371l2.022,10.731l0.954,-11.108l-2.976,0.377Z" style="fill:#0d0d0d;"/><path d="M51.504,10.522c3.456,-14.303 11.592,-11.841 16.048,-5.421c1.525,2.197 1.13,2.091 2.83,5.33c-1.98,-2.952 -1.861,-2.39 -3.633,-4.23c-6.376,-6.617 -15.731,-8.501 -18.999,4.23l3.754,0.091Z" style="fill:#0d0d0d;"/><path d="M109.702,45.108l-7.949,5.207l9.566,-2.679l-1.617,-2.528Z" style="fill:#0d0d0d;"/><path d="M111.21,99.68l-10.062,-4.168l8.811,6.895l1.251,-2.727Z" style="fill:#0d0d0d;"/><path d="M89.823,24.801l-5.064,9.105l7.803,-7.883l-2.739,-1.222Z" style="fill:#0d0d0d;"/><path d="M116.92,72.168l-8.857,0.863l8.983,2.134l-0.126,-2.997Z" style="fill:#0d0d0d;"/><path d="M92.359,120.392l-6.6,-7.664l4.148,9.391l2.452,-1.727Z" style="fill:#0d0d0d;"/><path d="M64.841,129.079l-1.453,-10.794l-1.533,11.083l2.986,-0.289Z" style="fill:#0d0d0d;"/><path d="M56.396,105.536l-19.923,-0.439l19.917,-2.987l0.006,3.426Z" style="fill:#0d0d0d;"/><path d="M56.396,53.807l-32.947,0.423l32.941,3.003l0.006,-3.426Z" style="fill:#0d0d0d;"/><path d="M56.396,93.869l-39.843,-0.416l39.837,-3.011l0.006,3.427Z" style="fill:#0d0d0d;"/><path d="M56.396,66.921l-47.912,0.405l47.906,3.021l0.006,-3.426Z" style="fill:#0d0d0d;"/><path d="M56.396,82.359l-56.396,-0.395l56.39,-3.031l0.006,3.426Z" style="fill:#0d0d0d;"/><g><path d="M72.975,75.252l27.104,-29.276l-24.814,31.628l-2.29,-2.352Z" style="fill:#0d0d0d;"/><path d="M66.839,67.759l35.752,-23.6l-34.015,26.421l-1.737,-2.821Z" style="fill:#0d0d0d;"/></g><path d="M103.576,25.24l-6.581,-5.386l-0.043,-0.02l-1.475,1.29l7.457,5.758l0.642,-1.642Z" style="fill:#0d0d0d;"/><path d="M107.194,18.875l-5.386,6.581l-0.019,0.042l1.289,1.476l5.758,-7.457l-1.642,-0.642Z" style="fill:#0d0d0d;"/><path d="M109.043,19.235l-7.894,-5.787l-0.044,-0.021l-0.488,1.452l6.797,5.836l0.005,-0.005l1.624,-1.475Z" style="fill:#0d0d0d;"/><path d="M101.111,13.42l-5.548,7.568l-0.02,0.042l1.44,0.555l5.608,-6.536l-1.48,-1.629Z" style="fill:#0d0d0d;"/><path d="M98.507,23.098l-4.075,4.77l-0.019,0.042l1.369,0.99l4.285,-4.658l-1.56,-1.144Z" style="fill:#0d0d0d;"/><path d="M55.753,10.687l0.365,6.263l0.015,0.044l1.673,-0.235l-0.136,-6.328l-1.917,0.256Z" style="fill:#0d0d0d;"/><path d="M60.783,10.436l0.364,6.263l0.016,0.044l1.672,-0.235l-0.135,-6.328l-1.917,0.256Z" style="fill:#0d0d0d;"/><path d="M61.118,11.535l9.264,-1.104l-1.261,-1.929l-8.338,1.128l0.335,1.905Z" style="fill:#0d0d0d;"/><path d="M57.806,9.698l-6.256,-0.467l-3.046,0.009l-0.754,1.191l10.056,1.201l0,-1.934Z" style="fill:#0d0d0d;"/><path d="M75.244,79.027l27.347,-35.043l-36.107,23.901l8.76,11.142Z" style="fill:#0d0d0d;"/></g></svg>