<svg width="140" height="130" viewBox="0 0 130 120" version="1.1" xmlns="http://www.w3.org/2000/svg" xmlns:xlink="http://www.w3.org/1999/xlink" xml:space="preserve" xmlns:serif="http://www.serif.com/" style="fill-rule:evenodd;clip-rule:evenodd;stroke-linecap:round;stroke-linejoin:round;stroke-miterlimit:1.5;"><g><circle cx="54.991" cy="12.789" r="12.789" style="fill:#009693;"/><circle cx="111.066" cy="76.789" r="12.789" style="fill:#009693;"/><circle cx="102.912" cy="34.789" r="12.789" style="fill:#c466a9;"/><g><path d="M55.252,13.013l-5.925,39.454l2.708,-40.108l3.217,0.654Z" style="fill:#0d0d0d;"/><path d="M123.553,40.93l-47.347,21.595l49.323,-17.797l-1.976,-3.798Z" style="fill:#0d0d0d;"/><path d="M64.541,15.753l-16.267,39.629l13.244,-40.984l3.023,1.355Z" style="fill:#0d0d0d;"/><path d="M116.783,30.264l-43.855,34.628l46.638,-31.322l-2.783,-3.306Z" style="fill:#0d0d0d;"/></g><path d="M92.275,92.19l-92.275,27.244l95.108,-24.362l-2.833,-2.882Z" style="fill:#0d0d0d;"/><path d="M10.444,92.19l-10.444,27.244l13.245,-26.17l-2.801,-1.074Z" style="fill:#0d0d0d;"/><path d="M66.725,38.124l-10.559,24.019l17.477,-20.978l-6.918,-3.041Z" style="fill:#0d0d0d;"/><path d="M107.613,65.956l-29.754,4.381l28.733,6.256l1.021,-10.637Z" style="fill:#0d0d0d;"/><path d="M34.245,109.69c0,0 -17.259,-8.84 -16.245,-33.097c0,0 10.578,32.896 25.081,31.097" style="fill:#0d0d0d;"/><path d="M56.156,103.812c0,0 -29.578,-4.482 -34.74,-50.439c0,0 5.833,11.689 13.807,25.006c8.735,14.589 24.692,26.024 33.523,20.701" style="fill:#0d0d0d;"/><path d="M82.171,97.812c0,0 -11.124,-3.6 -19.577,-10.612c-2.828,-2.345 -9.859,-6.456 -15.013,-12.336c-7.11,-8.112 -11.453,-17.689 -13.566,-23.491c-3.441,-9.449 -2.766,-19.727 0.201,-20.545c0.256,-0.071 -1.503,4.631 -0.201,10.053c1.596,6.644 6.325,14.369 6.946,15.712c2.094,4.526 5.029,9.701 7.277,12.786c3.181,4.366 14.059,13.193 18.141,15.899c6.54,4.336 20.357,10.434 26.382,6.802" style="fill:#0d0d0d;"/><path d="M36.847,7.461l1.743,5.366l5.642,0l-4.564,3.316l1.743,5.366l-4.564,-3.316l-4.565,3.316l1.744,-5.366l-4.565,-3.316l5.642,0l1.744,-5.366Z" style="fill:none;stroke:#0d0d0d;stroke-width:1px;"/><path d="M83.941,27.99l3.625,4.323l5.232,-2.112l-2.992,4.784l3.625,4.323l-5.474,-1.366l-2.992,4.783l-0.391,-5.628l-5.474,-1.367l5.232,-2.112l-0.391,-5.628Z" style="fill:none;stroke:#0d0d0d;stroke-width:1px;"/><path d="M121.847,61.461l1.743,5.366l5.642,0l-4.564,3.316l1.743,5.366l-4.564,-3.316l-4.565,3.316l1.744,-5.366l-4.565,-3.316l5.642,0l1.744,-5.366Z" style="fill:none;stroke:#0d0d0d;stroke-width:1px;"/></g></svg>