<?xml version="1.0" encoding="UTF-8" standalone="no"?><!DOCTYPE svg PUBLIC "-//W3C//DTD SVG 1.1//EN" "http://www.w3.org/Graphics/SVG/1.1/DTD/svg11.dtd"><svg width="100%" height="100%" viewBox="0 0 318 318" version="1.1" xmlns="http://www.w3.org/2000/svg" xmlns:xlink="http://www.w3.org/1999/xlink" xml:space="preserve" xmlns:serif="http://www.serif.com/" style="fill-rule:evenodd;clip-rule:evenodd;stroke-linejoin:round;stroke-miterlimit:1.41421;"><g><path d="M185.757,0c-71.25,0 -129.215,57.966 -129.215,129.215c0,34.055 13.249,65.069 34.855,88.175l-89.185,89.185l10.606,10.607l89.44,-89.44c22.537,19.129 51.691,30.688 83.498,30.688c71.249,0 129.214,-57.966 129.214,-129.215c0,-71.249 -57.964,-129.215 -129.213,-129.215Zm0,243.43c-62.979,0 -114.215,-51.236 -114.215,-114.215c0,-62.979 51.236,-114.215 114.215,-114.215c62.978,0 114.214,51.236 114.214,114.215c0,62.979 -51.237,114.215 -114.214,114.215Z" style="fill:#fff;fill-rule:nonzero;"/></g></svg>